<svg id="visual" viewBox="0 0 900 600" width="900" height="600" xmlns="http://www.w3.org/2000/svg" xmlns:xlink="http://www.w3.org/1999/xlink" version="1.1"><rect x="0" y="0" width="900" height="600" fill="#931C1C"></rect><path d="M0 397L100 340L200 417L300 407L400 416L500 390L600 442L700 404L800 421L900 354L900 601L800 601L700 601L600 601L500 601L400 601L300 601L200 601L100 601L0 601Z" fill="#f5730a"></path><path d="M0 403L100 385L200 430L300 443L400 474L500 428L600 387L700 455L800 406L900 433L900 601L800 601L700 601L600 601L500 601L400 601L300 601L200 601L100 601L0 601Z" fill="#da5b09"></path><path d="M0 439L100 455L200 509L300 465L400 430L500 430L600 447L700 434L800 487L900 472L900 601L800 601L700 601L600 601L500 601L400 601L300 601L200 601L100 601L0 601Z" fill="#be4407"></path><path d="M0 508L100 497L200 534L300 517L400 530L500 496L600 517L700 530L800 537L900 475L900 601L800 601L700 601L600 601L500 601L400 601L300 601L200 601L100 601L0 601Z" fill="#a32d04"></path><path d="M0 562L100 530L200 574L300 539L400 528L500 564L600 578L700 571L800 576L900 557L900 601L800 601L700 601L600 601L500 601L400 601L300 601L200 601L100 601L0 601Z" fill="#871400"></path></svg>